<svg xmlns="http://www.w3.org/2000/svg" width="46" height="46" viewBox="0 0 48 48">
  <path fill="#EA4335" d="M24 9.5c3.16 0 5.99 1.09 8.23 2.89l6.15-6.15C34.14 2.75 29.41 1 24 1 14.97 1 7.17 6.67 3.6 14.33l7.33 5.69C12.5 14.72 17.81 9.5 24 9.5z"></path>
  <path fill="#34A853" d="M46.1 24.64c0-1.64-.15-3.21-.42-4.74H24v9.03h12.36c-.53 2.85-2.1 5.26-4.5 6.87v5.72h7.27c4.24-3.91 6.67-9.68 6.67-16.88z"></path>
  <path fill="#4A90E2" d="M10.93 28.69c-1.05-2.08-1.65-4.42-1.65-6.89s.6-4.81 1.65-6.89l-7.33-5.69C1.92 13.37 0 18.43 0 24s1.92 10.63 5.6 14.78l7.33-5.69z"></path>
  <path fill="#FBBC05" d="M24 48c5.41 0 10.14-1.75 13.64-4.76l-7.27-5.72c-2 1.34-4.56 2.13-7.36 2.13-6.19 0-11.5-5.22-13.06-12.02l-7.33 5.69C7.17 41.33 14.97 48 24 48z"></path>
</svg>
